<?xml version="1.0" encoding="UTF-8" standalone="no"?>
<svg
   xmlns:dc="http://purl.org/dc/elements/1.1/"
   xmlns:cc="http://creativecommons.org/ns#"
   xmlns:rdf="http://www.w3.org/1999/02/22-rdf-syntax-ns#"
   xmlns:svg="http://www.w3.org/2000/svg"
   xmlns="http://www.w3.org/2000/svg"
   id="svg4735"
   version="1.1"
   viewBox="0 0 45.252603 44.200864"
   height="167.05838"
   width="171.03346">
  <defs
     id="defs4729" />
  <metadata
     id="metadata4732">
    <rdf:RDF>
      <cc:Work
         rdf:about="">
        <dc:format>image/svg+xml</dc:format>
        <dc:type
           rdf:resource="http://purl.org/dc/dcmitype/StillImage" />
        <dc:title></dc:title>
      </cc:Work>
    </rdf:RDF>
  </metadata>
  <g
     transform="translate(-150.4868,-186.45314)"
     id="layer1">
    <path
       id="path18"
       style="fill:#1b1817;fill-opacity:1;fill-rule:evenodd;stroke:none;stroke-width:0.03527778"
       d="m 173.11327,187.77606 c -11.76408,0 -21.30355,9.5377 -21.30355,21.30354 0,9.41246 6.10412,17.39794 14.56867,20.21487 1.06468,0.1972 1.45556,-0.46214 1.45556,-1.02482 0,-0.508 -0.0198,-2.18616 -0.0289,-3.96628 -5.92667,1.2887 -7.17727,-2.51354 -7.17727,-2.51354 -0.96908,-2.46239 -2.36537,-3.11715 -2.36537,-3.11715 -1.93287,-1.32221 0.14569,-1.29504 0.14569,-1.29504 2.13925,0.14993 3.26567,2.19569 3.26567,2.19569 1.90006,3.25649 4.98369,2.31493 6.19936,1.77059 0.19121,-1.37689 0.74331,-2.31705 1.35255,-2.84868 -4.73181,-0.53869 -9.70597,-2.36538 -9.70597,-10.5283 0,-2.32587 0.8322,-4.22628 2.19498,-5.71818 -0.22119,-0.53692 -0.95038,-2.70333 0.20638,-5.63774 0,0 1.78893,-0.57256 5.85999,2.1837 1.69933,-0.47202 3.52178,-0.70873 5.33223,-0.71685 1.81046,0.008 3.63432,0.24483 5.33683,0.71685 4.06611,-2.75626 5.85258,-2.1837 5.85258,-2.1837 1.15958,2.93441 0.43003,5.10082 0.20884,5.63774 1.36596,1.4919 2.19252,3.39231 2.19252,5.71818 0,8.18233 -4.98369,9.98396 -9.7275,10.51137 0.76412,0.6611 1.44498,1.95756 1.44498,3.94511 0,2.85044 -0.0247,5.14456 -0.0247,5.84623 0,0.56692 0.38347,1.2312 1.46332,1.022 8.45998,-2.82011 14.55633,-10.80276 14.55633,-20.21205 -1e-5,-11.76584 -9.53806,-21.30354 -21.3032,-21.30354" />
    <path
       id="path20"
       style="fill:#1b1817;fill-opacity:1;fill-rule:nonzero;stroke:none;stroke-width:0.03527778"
       d="m 159.87846,218.3633 c -0.0469,0.10618 -0.21344,0.13758 -0.36513,0.0649 -0.15452,-0.0695 -0.2413,-0.21378 -0.19121,-0.31997 0.0459,-0.10866 0.21273,-0.13899 0.36689,-0.0667 0.15487,0.0699 0.24307,0.21555 0.18945,0.32173 v 0" />
    <path
       id="path22"
       style="fill:#1b1817;fill-opacity:1;fill-rule:nonzero;stroke:none;stroke-width:0.03527778"
       d="m 160.74135,219.32568 c -0.1016,0.0942 -0.30021,0.0504 -0.43498,-0.0984 -0.13934,-0.14852 -0.16545,-0.34714 -0.0624,-0.44274 0.10478,-0.0938 0.29739,-0.0497 0.43709,0.0984 0.13935,0.15028 0.16652,0.34749 0.0603,0.44274 v 0" />
    <path
       id="path24"
       style="fill:#1b1817;fill-opacity:1;fill-rule:nonzero;stroke:none;stroke-width:0.03527778"
       d="m 161.58131,220.55264 c -0.13052,0.0907 -0.34395,0.006 -0.47589,-0.1838 -0.13053,-0.18944 -0.13053,-0.41663 0.003,-0.50765 0.13229,-0.091 0.34254,-0.009 0.47625,0.17886 0.13017,0.19262 0.13017,0.41981 -0.003,0.51259 v 0" />
    <path
       id="path26"
       style="fill:#1b1817;fill-opacity:1;fill-rule:nonzero;stroke:none;stroke-width:0.03527778"
       d="m 162.73207,221.73797 c -0.11676,0.12876 -0.36547,0.0942 -0.54751,-0.0815 -0.18626,-0.1718 -0.23812,-0.41557 -0.121,-0.54434 0.11818,-0.12911 0.3683,-0.0928 0.55175,0.0815 0.18485,0.17145 0.2413,0.41699 0.11676,0.54434 v 0" />
    <path
       id="path28"
       style="fill:#1b1817;fill-opacity:1;fill-rule:nonzero;stroke:none;stroke-width:0.03527778"
       d="m 164.31957,222.42624 c -0.0515,0.16687 -0.29104,0.24271 -0.53234,0.1718 -0.24094,-0.073 -0.39864,-0.26846 -0.34995,-0.43709 0.0501,-0.16792 0.29069,-0.24694 0.53375,-0.17109 0.24059,0.0727 0.39864,0.2667 0.34854,0.43638 v 0" />
    <path
       id="path30"
       style="fill:#1b1817;fill-opacity:1;fill-rule:nonzero;stroke:none;stroke-width:0.03527778"
       d="m 166.063,222.55395 c 0.006,0.17568 -0.19861,0.32138 -0.45191,0.32455 -0.2547,0.006 -0.46072,-0.13652 -0.46355,-0.30938 0,-0.17745 0.20003,-0.32174 0.45473,-0.32597 0.2533,-0.005 0.46073,0.13617 0.46073,0.3108 v 0" />
    <path
       id="path32"
       style="fill:#1b1817;fill-opacity:1;fill-rule:nonzero;stroke:none;stroke-width:0.03527778"
       d="m 167.68543,222.27772 c 0.0303,0.17145 -0.1457,0.34749 -0.39723,0.39441 -0.2473,0.0452 -0.47625,-0.0607 -0.50765,-0.23072 -0.0307,-0.17568 0.14852,-0.35172 0.39547,-0.39723 0.25188,-0.0437 0.4773,0.0593 0.50941,0.23354 v 0" />
  </g>
</svg>
