<?xml version="1.0" encoding="UTF-8"?>
<svg width="31.504" height="31.505" version="1.1" viewBox="0 0 31.504 31.505" xmlns="http://www.w3.org/2000/svg" xmlns:cc="http://creativecommons.org/ns#" xmlns:dc="http://purl.org/dc/elements/1.1/" xmlns:rdf="http://www.w3.org/1999/02/22-rdf-syntax-ns#">
 <metadata>
  <rdf:RDF>
   <cc:Work rdf:about="">
    <dc:format>image/svg+xml</dc:format>
    <dc:type rdf:resource="http://purl.org/dc/dcmitype/StillImage"/>
    <dc:title/>
   </cc:Work>
  </rdf:RDF>
 </metadata>
 <g transform="translate(-.49609 -1020.9)">
  <g transform="translate(-342.16 880.96)">
   <g transform="translate(-.84843 -43.458)">
    <g transform="translate(-46.734 -.58021)">
     <path d="m391.74 183.94c-0.82251 0-1.5 0.6775-1.5 1.5 0 0.82251 0.67749 1.5 1.5 1.5a0.50005 0.50005 0 0 0 0.0527-2e-3 0.50005 0.50005 0 0 0 0.0527 2e-3h2.4024a0.50005 0.50005 0 0 0 8e-3 0 0.50005 0.50005 0 0 0 0.041 0h3.4512c0.28206 0 0.5 0.21794 0.5 0.5 0 0.28207-0.21794 0.5-0.5 0.5a0.50005 0.50005 0 0 0-0.0215 0 0.50005 0.50005 0 0 0-0.0156 0h-2.9531a0.50005 0.50005 0 0 0-0.1543 0.0234c-1.3058 0.10838-2.3594 1.1614-2.3594 2.4707a0.50005 0.50005 0 0 0 0 0.01h-1.5v25l3-8e-3a1.0001 1.0001 0 0 1 0-2e-3v-14.99a1.0001 1.0001 0 0 1 0.49023-0.85937l3.5098-2.0801v-7.0606h-2.5a0.50005 0.50005 0 0 0 0-0.01c0-0.81928 0.68977-1.4922 1.5762-1.4922a0.50005 0.50005 0 0 0 0.0606-2e-3h0.83007a0.50005 0.50005 0 0 0 2e-3 0 0.50005 0.50005 0 0 0 0.0664-4e-3c0.80797-0.0173 1.4688-0.6843 1.4688-1.4961 0-0.76508-0.59015-1.3968-1.334-1.4824a0.50005 0.50005 0 0 0-0.13085-0.0175h-3.5273a0.50005 0.50005 0 0 0-8e-3 0h-0.50391c-0.28206 0-0.5-0.21793-0.5-0.5 0-0.28206 0.21794-0.5 0.5-0.5a0.50005 0.50005 0 1 0 0-1c-0.8225 0-1.5 0.6775-1.5 1.5 0 0.17566 0.0352 0.34275 0.0918 0.5h-0.49024a0.50005 0.50005 0 0 0-0.0508 2e-3 0.50005 0.50005 0 0 1-2e-3 0 0.50005 0.50005 0 0 0-0.0527-2e-3c-0.28207 0-0.5-0.21793-0.5-0.5 0-0.28206 0.21793-0.5 0.5-0.5a0.50005 0.50005 0 1 0 0-1zm3.0273 5.0078c-0.32377 0.41554-0.52343 0.92481-0.52343 1.4863a0.50005 0.50005 0 0 0 0 0.01h-1a0.50005 0.50005 0 0 0 0-0.01c0-0.8025 0.66328-1.4596 1.5234-1.4863zm13.477 7.4941-6.75 4.002-2e-3 -4-6.748 4v14.99l27 0.01v-19.002l-6.75 4v-4l-6.75 4v-4zm-10.5 6.998h3v3h-3zm6 0h3v3h-3zm6 0h3v3h-3zm6 0h3v3h-3zm-18 6h3v3h-3zm6 0h3v3h-3zm6 0h3v3h-3zm6 0h3v3h-3z" color="#000000" color-rendering="auto" image-rendering="auto" shape-rendering="auto" solid-color="#000000" style="isolation:auto;mix-blend-mode:normal"/>
    </g>
   </g>
  </g>
 </g>
</svg>
