<?xml version="1.0" encoding="UTF-8" standalone="no"?>
<svg
   xmlns:dc="http://purl.org/dc/elements/1.1/"
   xmlns:cc="http://creativecommons.org/ns#"
   xmlns:rdf="http://www.w3.org/1999/02/22-rdf-syntax-ns#"
   xmlns:svg="http://www.w3.org/2000/svg"
   xmlns="http://www.w3.org/2000/svg"
   xmlns:sodipodi="http://sodipodi.sourceforge.net/DTD/sodipodi-0.dtd"
   xmlns:inkscape="http://www.inkscape.org/namespaces/inkscape"
   version="1.1"
   x="0px"
   y="0px"
   viewBox="0 0 59.847027 95.373001"
   enable-background="new 0 0 100 100"
   xml:space="preserve"
   id="svg18"
   sodipodi:docname="science.svg"
   width="59.847027"
   height="95.373001"
   inkscape:version="0.92.3 (2405546, 2018-03-11)"><metadata
     id="metadata24"><rdf:RDF><cc:Work
         rdf:about=""><dc:format>image/svg+xml</dc:format><dc:type
           rdf:resource="http://purl.org/dc/dcmitype/StillImage" /><dc:title></dc:title></cc:Work></rdf:RDF></metadata><defs
     id="defs22" /><sodipodi:namedview
     pagecolor="#ffffff"
     bordercolor="#666666"
     borderopacity="1"
     objecttolerance="10"
     gridtolerance="10"
     guidetolerance="10"
     inkscape:pageopacity="0"
     inkscape:pageshadow="2"
     inkscape:window-width="1920"
     inkscape:window-height="1016"
     id="namedview20"
     showgrid="false"
     fit-margin-top="5"
     fit-margin-right="5"
     fit-margin-bottom="5"
     fit-margin-left="5"
     inkscape:zoom="1.888"
     inkscape:cx="-130.03424"
     inkscape:cy="35.187"
     inkscape:window-x="0"
     inkscape:window-y="27"
     inkscape:window-maximized="1"
     inkscape:current-layer="svg18" /><g
     id="g12"
     transform="translate(-20.076611,-2.314)"><g
       id="g10"><path
         d="m 74.653,84.504 c -0.02,-0.062 -0.043,-0.123 -0.07,-0.183 L 59,50.524 V 38.371 c 0.994,-0.197 1.745,-1.072 1.745,-2.124 v 0 c 0,-1.196 -0.97,-2.167 -2.167,-2.167 H 40.911 c -1.197,0 -2.167,0.97 -2.167,2.167 v 0 c 0,1.196 0.97,2.167 2.167,2.167 H 41 V 50.525 L 25.417,84.321 c -0.027,0.06 -0.051,0.12 -0.07,0.183 -0.558,1.795 -0.241,3.783 0.846,5.317 l 0.217,0.306 c 1.137,1.602 2.989,2.56 4.954,2.56 h 37.273 c 1.965,0 3.817,-0.957 4.954,-2.56 l 0.217,-0.307 c 1.087,-1.533 1.403,-3.521 0.845,-5.316 z M 43.862,51.481 C 43.953,51.284 44,51.07 44,50.854 v -12.44 h 12 v 12.44 c 0,0.217 0.047,0.431 0.138,0.628 l 7.181,15.574 c -7.902,1.316 -12.927,4.667 -18.818,4.798 -2.636,0.059 -6.364,-0.62 -9.428,-1.308 z"
         id="path2"
         inkscape:connector-curvature="0" /><path
         d="m 50.719,31.187 c 3.032,0 5.5,-2.468 5.5,-5.5 0,-3.032 -2.468,-5.5 -5.5,-5.5 -3.032,0 -5.5,2.468 -5.5,5.5 0,3.032 2.468,5.5 5.5,5.5 z m 0,-9 c 1.93,0 3.5,1.57 3.5,3.5 0,1.93 -1.57,3.5 -3.5,3.5 -1.93,0 -3.5,-1.57 -3.5,-3.5 0,-1.93 1.57,-3.5 3.5,-3.5 z"
         id="path4"
         inkscape:connector-curvature="0" /><path
         d="m 45.867,18.241 c 1.959,0 3.554,-1.595 3.554,-3.554 0,-1.96 -1.595,-3.554 -3.554,-3.554 -1.959,0 -3.554,1.595 -3.554,3.554 -0.001,1.959 1.594,3.554 3.554,3.554 z m 0,-5.816 c 1.247,0 2.262,1.015 2.262,2.262 0,1.247 -1.015,2.262 -2.262,2.262 -1.247,0 -2.262,-1.015 -2.262,-2.262 0,-1.247 1.015,-2.262 2.262,-2.262 z"
         id="path6"
         inkscape:connector-curvature="0" /><path
         d="m 60.719,22.061 c 4.065,0 7.373,-3.308 7.373,-7.374 0,-4.066 -3.308,-7.373 -7.373,-7.373 -4.065,0 -7.373,3.308 -7.373,7.373 0,4.066 3.307,7.374 7.373,7.374 z m 0,-12.748 c 2.963,0 5.373,2.41 5.373,5.373 0,2.963 -2.41,5.374 -5.373,5.374 -2.963,0 -5.373,-2.411 -5.373,-5.374 0,-2.963 2.41,-5.373 5.373,-5.373 z"
         id="path8"
         inkscape:connector-curvature="0" /></g></g></svg>