<?xml version="1.0" encoding="UTF-8"?>
<svg width="89.999" height="50.204" enable-background="new 0 0 100 100" version="1.1" viewBox="0 0 89.999 50.204" xml:space="preserve" xmlns="http://www.w3.org/2000/svg" xmlns:cc="http://creativecommons.org/ns#" xmlns:dc="http://purl.org/dc/elements/1.1/" xmlns:rdf="http://www.w3.org/1999/02/22-rdf-syntax-ns#"><metadata><rdf:RDF><cc:Work rdf:about=""><dc:format>image/svg+xml</dc:format><dc:type rdf:resource="http://purl.org/dc/dcmitype/StillImage"/><dc:title/></cc:Work></rdf:RDF></metadata><g transform="translate(-5.0012 -28.897)"><g fill="none"><path d="m55.711 59.396c-7e-3 -3e-3 -0.012-6e-3 -0.019-0.01-0.974 0.959-2.056 1.719-3.208 2.176-0.784 0.311-1.601 0.483-2.44 0.483s-1.656-0.173-2.439-0.483c-1.165-0.461-2.254-1.23-3.235-2.202h-1e-3c0 1.196-0.913 1.877-1.535 2.202-0.072 0.039-0.144 0.072-0.207 0.102-0.154 0.07-0.272 0.111-0.324 0.129v1e-3c0.037 0.307 0.173 0.604 0.391 0.883 1.026 1.312 3.909 3.205 7.305 3.205s6.28-1.894 7.305-3.205c0.219-0.279 0.355-0.576 0.393-0.881 1e-3 -0.01 1e-3 -0.018 3e-3 -0.028-0.418-0.154-1.964-0.83-1.989-2.372z"/><path d="m59.081 48.047c-0.03-0.015-0.063-0.026-0.097-0.032l-0.967 0.934-7.064-3.635c-0.379 0.128-0.666 0.193-0.954 0.193-0.496 0-0.996-0.191-1.98-0.578l-4.208-1.554c-1.885 1.307-2.255 4.394-2.291 4.748-3e-3 0.022-3e-3 0.033-3e-3 0.033-0.118-0.095-0.237-0.146-0.354-0.146-0.021 0-0.042 1e-3 -0.062 5e-3 -0.059 0.011-0.114 0.036-0.166 0.073-0.376 0.271-0.527 1.216-0.337 2.286 0.146 0.813 0.453 1.49 0.787 1.826 0.144 0.144 0.292 0.225 0.436 0.225 0.022 0 0.044-2e-3 0.066-6e-3 0.08-0.014 0.151-0.053 0.217-0.113 0.792 2.465 2.305 4.923 4.215 6.404 1.124 0.874 2.388 1.411 3.723 1.411 1.327 0 2.584-0.529 3.701-1.394 1.922-1.483 3.443-3.948 4.239-6.422 0.065 0.061 0.136 0.1 0.218 0.113 0.021 4e-3 0.043 6e-3 0.064 6e-3 0.12 0 0.245-0.057 0.367-0.161 0.359-0.306 0.701-1.021 0.854-1.891 0.205-1.133 0.023-2.127-0.404-2.325z"/><path d="m27.353 49.511-0.726 0.7-5.297-2.726c-0.775 0.262-1.033 0.169-2.201-0.289l-3.156-1.166c-1.414 0.981-1.691 3.296-1.718 3.562-3e-3 0.016-3e-3 0.024-3e-3 0.024-0.104-0.083-0.209-0.123-0.311-0.105-0.044 8e-3 -0.086 0.026-0.125 0.054-0.282 0.204-0.396 0.912-0.252 1.715 0.109 0.609 0.339 1.118 0.59 1.369 0.124 0.125 0.253 0.187 0.377 0.164 0.059-0.01 0.112-0.039 0.162-0.085 0.594 1.849 1.729 3.692 3.162 4.804 0.843 0.654 1.791 1.058 2.792 1.058 0.996 0 1.938-0.396 2.776-1.045 1.441-1.113 2.583-2.962 3.179-4.816 0.05 0.046 0.103 0.075 0.164 0.085 0.105 0.019 0.215-0.024 0.324-0.116 0.27-0.229 0.526-0.767 0.641-1.418 0.153-0.85 0.015-1.595-0.305-1.745-0.024-0.011-0.048-0.019-0.073-0.024z"/><path d="m83.669 58.047c-5e-3 -2e-3 -9e-3 -5e-3 -0.014-7e-3 -0.73 0.72-1.542 1.289-2.406 1.633-0.588 0.231-1.199 0.361-1.83 0.361-0.63 0-1.241-0.13-1.829-0.361-0.873-0.346-1.69-0.925-2.426-1.652h-2e-3c0 0.897-0.684 1.408-1.15 1.652-0.054 0.029-0.106 0.054-0.154 0.076-0.117 0.051-0.205 0.083-0.243 0.095v2e-3c0.027 0.23 0.129 0.452 0.293 0.661 0.77 0.984 2.932 2.404 5.479 2.404s4.71-1.42 5.479-2.404c0.163-0.209 0.266-0.431 0.294-0.66 1e-3 -8e-3 1e-3 -0.013 1e-3 -0.021-0.313-0.115-1.473-0.622-1.492-1.779z"/><path d="m24.897 58.047c-4e-3 -2e-3 -8e-3 -5e-3 -0.014-7e-3 -0.73 0.72-1.542 1.289-2.406 1.633-0.588 0.231-1.201 0.361-1.83 0.361-0.63 0-1.242-0.13-1.83-0.361-0.873-0.346-1.691-0.925-2.426-1.652 0 0.897-0.685 1.408-1.151 1.652-0.055 0.029-0.108 0.054-0.156 0.076-0.116 0.051-0.204 0.083-0.243 0.095v2e-3c0.028 0.23 0.13 0.452 0.293 0.661 0.769 0.984 2.932 2.404 5.479 2.404s4.71-1.42 5.479-2.404c0.164-0.209 0.267-0.431 0.294-0.66 1e-3 -8e-3 1e-3 -0.013 2e-3 -0.021-0.313-0.115-1.471-0.622-1.491-1.779z"/><path d="m86.124 49.511-0.725 0.7-5.299-2.726c-0.774 0.262-1.033 0.169-2.2-0.289l-3.156-1.166c-1.413 0.981-1.691 3.296-1.718 3.562-3e-3 0.016-3e-3 0.024-3e-3 0.024-0.104-0.083-0.209-0.123-0.312-0.105-0.044 8e-3 -0.085 0.026-0.123 0.054-0.283 0.204-0.396 0.912-0.254 1.715 0.11 0.609 0.339 1.118 0.591 1.369 0.124 0.125 0.254 0.187 0.376 0.164 0.061-0.01 0.114-0.039 0.163-0.085 0.595 1.849 1.729 3.692 3.161 4.804 0.843 0.654 1.791 1.058 2.792 1.058 0.995 0 1.938-0.396 2.776-1.045 1.441-1.113 2.583-2.962 3.18-4.816 0.049 0.046 0.102 0.075 0.163 0.085 0.105 0.019 0.216-0.024 0.323-0.116 0.27-0.229 0.526-0.767 0.641-1.418 0.152-0.85 0.017-1.595-0.304-1.745-0.022-0.011-0.047-0.019-0.072-0.024z"/></g><path d="m94.867 66.776c-1.771-6.092-5.044-6.301-5.748-6.465-0.082-0.019-0.164-0.037-0.247-0.053-2.138-1.975-0.678-10.218-0.678-10.218 0-3.22-0.561-5.529-1.39-7.189l-0.084-0.827 0.93-0.538 2.443-1.413c0.124-0.124 0.124-0.324 0-0.446l-10.484-4.362c-0.123-0.123-0.322-0.123-0.446 0l-10.483 4.362c-0.124 0.123-0.124 0.322 0 0.446l0.782 0.452-0.05 0.69c-0.269 0.045-0.473 0.278-0.473 0.56 0 0.253 0.165 0.467 0.395 0.541l-0.458 6.405 0.632 1.894 0.63-1.894-0.457-6.405c0.229-0.074 0.394-0.288 0.394-0.541 0-0.281-0.205-0.515-0.472-0.56l-0.046-0.635 1.094 0.633 0.045 0.026 0.868 0.503-0.205 2.607c-0.481 1.481-0.778 3.345-0.778 5.691 0 0 1.459 8.243-0.679 10.218-0.083 0.016-0.165 0.034-0.246 0.053-0.469 0.108-2.065 0.248-3.604 2.101 1.837 1.042 4.08 3.285 5.552 8.346 0.15 0.521 0.198 1.061 0.192 1.596 2.441 0.336 5.132 0.474 7.593 0.474 6.166 2e-3 13.796-0.844 15.245-3.586 0.387-0.738 0.471-1.638 0.233-2.466zm-9.708-6.929c-0.028 0.229-0.131 0.451-0.294 0.66-0.769 0.984-2.932 2.404-5.479 2.404-2.548 0-4.71-1.42-5.479-2.404-0.164-0.209-0.266-0.431-0.293-0.661v-2e-3c0.038-0.012 0.126-0.044 0.243-0.095 0.048-0.022 0.101-0.047 0.154-0.076 0.467-0.244 1.15-0.755 1.15-1.652h2e-3c0.735 0.728 1.553 1.307 2.426 1.652 0.588 0.231 1.199 0.361 1.829 0.361 0.631 0 1.242-0.13 1.83-0.361 0.864-0.344 1.676-0.913 2.406-1.633 5e-3 2e-3 9e-3 5e-3 0.014 7e-3 0.02 1.157 1.179 1.664 1.491 1.779 1e-3 8e-3 1e-3 0.013 0 0.021zm1.342-8.568c-0.114 0.651-0.371 1.188-0.641 1.418-0.107 0.092-0.218 0.135-0.323 0.116-0.062-0.01-0.114-0.039-0.163-0.085-0.597 1.854-1.738 3.703-3.18 4.816-0.839 0.648-1.781 1.045-2.776 1.045-1.001 0-1.949-0.403-2.792-1.058-1.433-1.111-2.566-2.955-3.161-4.804-0.049 0.046-0.103 0.075-0.163 0.085-0.122 0.022-0.252-0.039-0.376-0.164-0.252-0.251-0.48-0.76-0.591-1.369-0.143-0.803-0.029-1.511 0.254-1.715 0.038-0.028 0.079-0.046 0.123-0.054 0.103-0.017 0.207 0.022 0.312 0.105 0 0 0-8e-3 3e-3 -0.024 0.026-0.266 0.305-2.581 1.718-3.562l3.156 1.166c1.167 0.458 1.426 0.551 2.2 0.289l5.299 2.726 0.725-0.7c0.025 4e-3 0.05 0.013 0.073 0.023 0.32 0.151 0.455 0.897 0.303 1.746z"/><path d="m33.951 62.412c-1.54-1.853-3.136-1.992-3.603-2.101-0.082-0.019-0.165-0.037-0.248-0.053-2.137-1.975-0.679-10.218-0.679-10.218 0-3.22-0.559-5.529-1.39-7.189l-0.083-0.827 0.929-0.538 0.473-0.273 1.971-1.14c0.123-0.124 0.123-0.324 0-0.446l-10.484-4.362c-0.124-0.123-0.323-0.123-0.447 0l-10.483 4.362c-0.124 0.123-0.124 0.322 0 0.446l0.782 0.452-0.05 0.69c-0.268 0.045-0.472 0.278-0.472 0.56 0 0.253 0.166 0.467 0.395 0.541l-0.458 6.405 0.631 1.894 0.631-1.894-0.458-6.405c0.229-0.074 0.395-0.288 0.395-0.541 0-0.281-0.206-0.515-0.473-0.56l-0.045-0.635 1.093 0.633 0.045 0.026 0.868 0.503-0.204 2.607c-0.482 1.481-0.778 3.345-0.778 5.691 0 0 1.458 8.243-0.678 10.218-0.084 0.016-0.167 0.034-0.248 0.053-0.705 0.164-3.977 0.373-5.748 6.465-0.239 0.828-0.156 1.728 0.235 2.465 1.451 2.742 9.079 3.587 15.245 3.586 2.461 1e-3 5.15-0.137 7.592-0.473-6e-3 -0.536 0.042-1.075 0.192-1.599 1.471-5.058 3.715-7.301 5.552-8.343zm-7.564-2.565c-0.027 0.229-0.13 0.451-0.294 0.66-0.769 0.984-2.932 2.404-5.479 2.404s-4.71-1.42-5.479-2.404c-0.164-0.209-0.266-0.431-0.293-0.661v-2e-3c0.039-0.012 0.127-0.044 0.243-0.095 0.048-0.022 0.101-0.047 0.156-0.076 0.466-0.244 1.151-0.755 1.151-1.652 0.735 0.728 1.553 1.307 2.426 1.652 0.587 0.231 1.2 0.361 1.83 0.361 0.629 0 1.242-0.13 1.83-0.361 0.864-0.344 1.676-0.913 2.406-1.633 6e-3 2e-3 9e-3 5e-3 0.014 7e-3 0.02 1.157 1.178 1.664 1.492 1.779-2e-3 8e-3 -2e-3 0.013-3e-3 0.021zm1.342-8.568c-0.115 0.651-0.372 1.188-0.641 1.418-0.108 0.092-0.219 0.135-0.324 0.116-0.061-0.01-0.114-0.039-0.164-0.085-0.596 1.854-1.737 3.703-3.179 4.816-0.838 0.648-1.78 1.045-2.776 1.045-1 0-1.949-0.403-2.792-1.058-1.433-1.111-2.568-2.955-3.162-4.804-0.05 0.046-0.103 0.075-0.162 0.085-0.124 0.022-0.253-0.039-0.377-0.164-0.251-0.251-0.481-0.76-0.59-1.369-0.143-0.803-0.029-1.511 0.252-1.715 0.039-0.028 0.08-0.046 0.125-0.054 0.102-0.017 0.208 0.022 0.311 0.105 0 0 0-8e-3 3e-3 -0.024 0.026-0.266 0.304-2.581 1.718-3.562l3.156 1.166c1.167 0.458 1.425 0.551 2.201 0.289l5.297 2.726 0.726-0.7c0.026 4e-3 0.05 0.013 0.072 0.023 0.322 0.151 0.459 0.897 0.306 1.746z"/><path d="m62.978 62.414c-0.109-0.024-0.219-0.049-0.329-0.069-2.851-2.633-0.905-13.624-0.905-13.624 0-4.293-0.746-7.372-1.853-9.585l-0.11-1.103 1.237-0.717 0.63-0.364 2.628-1.52c0.165-0.166 0.165-0.431 0-0.596l-13.98-5.816c-0.082-0.082-0.189-0.123-0.297-0.123-0.107 0-0.216 0.041-0.298 0.123l-13.978 5.816c-0.165 0.165-0.165 0.43 0 0.596l1.043 0.602-0.066 0.92c-0.358 0.06-0.63 0.372-0.63 0.747 0 0.337 0.221 0.623 0.526 0.721l-0.61 8.54 0.842 2.525 0.841-2.525-0.61-8.54c0.305-0.098 0.526-0.384 0.526-0.721 0-0.375-0.273-0.687-0.63-0.747l-0.06-0.847 1.458 0.845 0.06 0.034 1.157 0.67-0.272 3.476c-0.643 1.976-1.038 4.461-1.038 7.588 0 0 1.945 10.991-0.905 13.624-0.111 0.021-0.222 0.045-0.33 0.069-0.94 0.22-5.302 0.499-7.665 8.621-0.318 1.104-0.207 2.303 0.314 3.287 1.933 3.654 12.098 4.78 20.316 4.78h0.011 0.021c8.218 0 18.376-1.128 20.306-4.78 0.52-0.984 0.633-2.183 0.313-3.287-2.362-8.121-6.724-8.4-7.663-8.62zm-5.281-0.618c-0.037 0.305-0.174 0.602-0.393 0.881-1.024 1.312-3.908 3.205-7.305 3.205s-6.279-1.894-7.305-3.205c-0.218-0.279-0.354-0.576-0.391-0.883v-1e-3c0.052-0.018 0.169-0.059 0.324-0.129 0.063-0.029 0.135-0.063 0.207-0.102 0.622-0.325 1.535-1.006 1.535-2.202h1e-3c0.981 0.972 2.07 1.741 3.235 2.202 0.783 0.311 1.6 0.483 2.439 0.483 0.84 0 1.656-0.173 2.44-0.483 1.152-0.457 2.234-1.217 3.208-2.176 7e-3 4e-3 0.012 7e-3 0.019 0.01 0.025 1.542 1.571 2.218 1.989 2.371-2e-3 0.011-2e-3 0.019-3e-3 0.029zm1.79-11.424c-0.153 0.869-0.495 1.585-0.854 1.891-0.122 0.104-0.247 0.161-0.367 0.161-0.021 0-0.043-2e-3 -0.064-6e-3 -0.082-0.014-0.152-0.053-0.218-0.113-0.796 2.474-2.317 4.938-4.239 6.422-1.117 0.864-2.374 1.394-3.701 1.394-1.335 0-2.599-0.537-3.723-1.411-1.911-1.481-3.423-3.939-4.215-6.404-0.066 0.061-0.137 0.1-0.217 0.113-0.022 4e-3 -0.044 6e-3 -0.066 6e-3 -0.144 0-0.292-0.081-0.436-0.225-0.334-0.336-0.641-1.014-0.787-1.826-0.19-1.07-0.039-2.015 0.337-2.286 0.051-0.037 0.106-0.062 0.166-0.073 0.021-3e-3 0.041-5e-3 0.062-5e-3 0.116 0 0.236 0.051 0.354 0.146 0 0 0-0.011 3e-3 -0.033 0.036-0.354 0.406-3.441 2.291-4.748l4.208 1.554c0.984 0.386 1.484 0.578 1.98 0.578 0.288 0 0.575-0.064 0.954-0.193l7.064 3.635 0.967-0.934c0.034 6e-3 0.066 0.018 0.097 0.032 0.425 0.198 0.607 1.192 0.404 2.325z"/></g></svg>
