<?xml version="1.0" encoding="UTF-8" standalone="no"?>
<svg
   xmlns:dc="http://purl.org/dc/elements/1.1/"
   xmlns:cc="http://creativecommons.org/ns#"
   xmlns:rdf="http://www.w3.org/1999/02/22-rdf-syntax-ns#"
   xmlns:svg="http://www.w3.org/2000/svg"
   xmlns="http://www.w3.org/2000/svg"
   height="110.25533"
   width="195.90309"
   version="1.1"
   viewBox="0 0 195.90309 110.2553"
   data-name="Layer 1"
   id="Layer_1">
  <metadata
     id="metadata33">
    <rdf:RDF>
      <cc:Work
         rdf:about="">
        <dc:format>image/svg+xml</dc:format>
        <dc:type
           rdf:resource="http://purl.org/dc/dcmitype/StillImage" />
        <dc:title>binder_logo</dc:title>
      </cc:Work>
    </rdf:RDF>
  </metadata>
  <defs
     id="defs4">
    <marker
       orient="auto"
       refY="0"
       refX="0"
       id="marker3448"
       style="overflow:visible">
      <path
         id="path3446"
         d="M 0,0 5,-5 -12.5,0 5,5 Z"
         style="fill:#000000;fill-opacity:1;fill-rule:evenodd;stroke:#000000;stroke-width:1.00000003pt;stroke-opacity:1"
         transform="matrix(0.2,0,0,0.2,1.2,0)" />
    </marker>
    <marker
       style="overflow:visible"
       id="marker3402"
       refX="0"
       refY="0"
       orient="auto">
      <path
         transform="matrix(0.2,0,0,0.2,1.2,0)"
         style="fill:#000000;fill-opacity:1;fill-rule:evenodd;stroke:#000000;stroke-width:1.00000003pt;stroke-opacity:1"
         d="M 0,0 5,-5 -12.5,0 5,5 Z"
         id="path3400" />
    </marker>
    <marker
       orient="auto"
       refY="0"
       refX="0"
       id="marker3356"
       style="overflow:visible">
      <path
         id="path3354"
         d="M 0,0 5,-5 -12.5,0 5,5 Z"
         style="fill:#000000;fill-opacity:1;fill-rule:evenodd;stroke:#000000;stroke-width:1.00000003pt;stroke-opacity:1"
         transform="matrix(0.2,0,0,0.2,1.2,0)" />
    </marker>
    <marker
       style="overflow:visible"
       id="Arrow1Sstart"
       refX="0"
       refY="0"
       orient="auto">
      <path
         transform="matrix(0.2,0,0,0.2,1.2,0)"
         style="fill:#000000;fill-opacity:1;fill-rule:evenodd;stroke:#000000;stroke-width:1.00000003pt;stroke-opacity:1"
         d="M 0,0 5,-5 -12.5,0 5,5 Z"
         id="path2658" />
    </marker>
    <marker
       style="overflow:visible"
       id="Arrow1Send"
       refX="0"
       refY="0"
       orient="auto">
      <path
         transform="matrix(-0.2,0,0,-0.2,-1.2,0)"
         style="fill:#000000;fill-opacity:1;fill-rule:evenodd;stroke:#000000;stroke-width:1.00000003pt;stroke-opacity:1"
         d="M 0,0 5,-5 -12.5,0 5,5 Z"
         id="path2661" />
    </marker>
    <style
       id="style2">.cls-1{fill:#545454;}.cls-2,.cls-3,.cls-4{fill:none;stroke-miterlimit:10;stroke-width:4.5px;}.cls-2{stroke:#f5a252;}.cls-3{stroke:#579aca;}.cls-4{stroke:#e66581;}</style>
  </defs>
  <title
     id="title6">binder_logo</title>
  <g
     transform="translate(3.4830894,1.2519355)"
     id="g1495">
    <path
       class="cls-1"
       d="M 44.85,43.26 V 7 h 7.25 v 17.55 a 8.93,8.93 0 0 1 7.3,-3.09 c 6,0 10.59,5.27 10.59,11.17 0,5.9 -4.55,11.11 -10.59,11.11 -2.76,0 -5.85,-0.87 -7.3,-3 v 2.56 z m 12.33,-5.32 a 5.32,5.32 0 1 0 -5.08,-5.32 5.22,5.22 0 0 0 5.08,5.32 z"
       id="path8"
       style="fill:#000000" />
    <path
       class="cls-1"
       d="m 78.45,10.38 a 4.25,4.25 0 1 1 -4.25,4.25 4.26,4.26 0 0 1 4.25,-4.25 z M 74.82,43.26 V 21.94 h 7.25 v 21.32 z"
       id="path10"
       style="fill:#000000" />
    <path
       class="cls-1"
       d="m 109.92,43.26 h -7.25 V 31.17 c 0,-2.51 -1,-3.87 -3.24,-3.87 -2.24,0 -4.06,2.42 -4.06,5.32 V 43.26 H 88.12 V 21.94 h 7.25 v 2.61 a 8.17,8.17 0 0 1 6.53,-3.09 c 5.7,0 8,3.92 8,9.72 z"
       id="path12"
       style="fill:#000000" />
    <path
       class="cls-1"
       d="m 138.92,43.26 h -7.25 v -2.57 c -1.45,2.18 -4.59,3 -7.3,3 -6,0 -10.59,-5.22 -10.59,-11.12 0,-5.9 4.54,-11.17 10.59,-11.17 a 9,9 0 0 1 7.3,3.09 V 7 h 7.25 z m -12.33,-16 a 5.32,5.32 0 1 0 5.08,5.32 5.22,5.22 0 0 0 -5.07,-5.28 z"
       id="path14"
       style="fill:#000000" />
    <path
       class="cls-1"
       d="M 167.74,33.49 H 151.2 c 0,2.47 1.74,5.08 4.59,5.08 2.56,0 4.16,-1.69 4.21,-3.24 h 7.4 c -1.26,5.61 -5.8,8.41 -11.46,8.41 -7.35,0 -12.42,-4.35 -12.42,-11.12 0,-6.77 5.27,-11.17 12.42,-11.17 6.48,0 11.84,3.87 11.84,10.68 0,0.44 -0.04,0.93 -0.04,1.36 z m -6.91,-3.43 a 4.46,4.46 0 0 0 -4.74,-4 c -4.54,0 -4.79,4 -4.79,4 z"
       id="path16"
       style="fill:#000000" />
    <path
       class="cls-1"
       d="m 179.63,32.62 v 10.64 h -7.25 V 21.94 h 7.25 v 2.61 a 6.75,6.75 0 0 1 5.61,-3.09 5.69,5.69 0 0 1 2.18,0.48 v 6.57 h -0.1 a 3.63,3.63 0 0 0 -2.9,-1.21 c -2.71,0 -4.79,2.76 -4.79,5.32 z"
       id="path18"
       style="fill:#000000" />
    <circle
       class="cls-2"
       cx="22.98"
       cy="15.92"
       r="9.7200003"
       transform="rotate(-29.94,22.972502,15.920313)"
       id="circle20"
       style="fill:none;stroke:#000000;stroke-width:4.5px;stroke-miterlimit:10" />
    <circle
       class="cls-3"
       cx="22.98"
       cy="34.82"
       r="9.7200003"
       transform="rotate(-29.94,22.988453,34.818859)"
       id="circle22"
       style="fill:none;stroke:#000000;stroke-width:4.5px;stroke-miterlimit:10" />
    <circle
       class="cls-4"
       cx="13.48"
       cy="25.440001"
       r="9.7200003"
       transform="rotate(-29.94,13.473805,25.44236)"
       id="circle24"
       style="fill:none;stroke:#000000;stroke-width:4.5px;stroke-miterlimit:10" />
    <path
       class="cls-3"
       d="M 15.16,29.05 A 9.72,9.72 0 0 1 31.4,30"
       id="path26"
       style="fill:none;stroke:#000000;stroke-width:4.5px;stroke-miterlimit:10" />
    <path
       class="cls-2"
       d="M 14.56,20.77 A 9.72,9.72 0 1 1 31.4,11.07"
       id="path28"
       style="fill:none;stroke:#000000;stroke-width:4.5px;stroke-miterlimit:10" />
  </g>
  <g
     id="g903"
     transform="translate(0.01600002,10.284322)">
    <path
       id="path899"
       d="M 71,85.75 C 87,77.5 56.634,74.562 42.249,70.46 c -5.692,-1.623 -8.354,-4.545 -5.75,-6.866 2.583,-2.302 7.643,-4.728 12,-6.844 8.749,-4.25 -9.323,-4.23 -17.073,-4.23 -5.621,0 -3.194,-4.523 -1.339,-6.862 C 13.667,47.647 4.984,51.5 4.984,51.5 V 94.971 H 18.75 C 27.25,87.971 55,94 71,85.75 Z" />
    <path
       id="path901"
       d="M 30.127,48.764 C 29.842,52.162 40,48.5 52,50 c 12,1.5 9.25,6.5 4.5,10.5 -4.75,4 14.641,2.88 33.641,4.63 1.836,0.169 3.447,0.535 4.859,1.06 V 51.5 c 0,0 -15.75,-7.005 -45,-7.005 -6.725,0 -12.727,0.373 -17.999,0.943 -0.805,1.121 -1.787,2.296 -1.874,3.326 z" />
  </g>
  <g
     transform="translate(2.5504084,0.79151126)"
     id="g2962">
    <path
       style="fill:none;stroke:#000000;stroke-width:1px;stroke-linecap:butt;stroke-linejoin:miter;stroke-opacity:1;marker-start:url(#Arrow1Sstart)"
       d="M 99.083123,57.059986 V 103.89591"
       id="path2609" />
    <path
       style="fill:none;stroke:#000000;stroke-width:1px;stroke-linecap:butt;stroke-linejoin:miter;stroke-opacity:1;marker-start:url(#marker3356)"
       d="M 129.08312,57.059986 V 103.89591"
       id="path2609-1" />
    <path
       style="fill:none;stroke:#000000;stroke-width:1px;stroke-linecap:butt;stroke-linejoin:miter;stroke-opacity:1;marker-start:url(#marker3402)"
       d="M 159.08312,57.059986 V 103.89591"
       id="path2609-6" />
    <path
       style="fill:none;stroke:#000000;stroke-width:1px;stroke-linecap:butt;stroke-linejoin:miter;stroke-opacity:1;marker-start:url(#marker3448)"
       d="M 187.08312,57.059986 V 103.89591"
       id="path2609-0" />
    <path
       style="fill:none;stroke:#000000;stroke-width:1px;stroke-linecap:butt;stroke-linejoin:miter;stroke-opacity:1"
       d="m 99.218631,60.072767 30.218189,31.898473 29.6463,11.92467 27.93704,-20.571974"
       id="path2638" />
    <path
       style="fill:none;stroke:#000000;stroke-width:1px;stroke-linecap:butt;stroke-linejoin:miter;stroke-opacity:1"
       d="m 99.059076,91.3317 29.889914,-29.768351 29.97427,32.684421 27.77658,9.11156"
       id="path2640" />
    <path
       style="fill:none;stroke:#000000;stroke-width:1px;stroke-linecap:butt;stroke-linejoin:miter;stroke-opacity:1"
       d="m 98.999478,100.2113 29.971972,-18.972027 30.1636,9.045247 27.71066,4.56095"
       id="path2642" />
    <path
       style="fill:none;stroke:#000000;stroke-width:1px;stroke-linecap:butt;stroke-linejoin:miter;stroke-opacity:1"
       d="M 99.159778,103.58929 129.22,62.701613 187.1981,103.35933"
       id="path2644" />
  </g>
</svg>
